<?xml version="1.0" standalone="no"?>
<!DOCTYPE svg PUBLIC "-//W3C//DTD SVG 20010904//EN"
 "http://www.w3.org/TR/2001/REC-SVG-20010904/DTD/svg10.dtd">
<svg version="1.0" xmlns="http://www.w3.org/2000/svg"
 width="4000.000000pt" height="4000.000000pt" viewBox="0 0 4000.000000 4000.000000"
 preserveAspectRatio="xMidYMid meet">

<g transform="translate(0.000000,4000.000000) scale(0.100000,-0.100000)"
fill="#000000" stroke="none">
<path d="M16658 28797 l-3 -3393 -100 54 c-663 357 -1428 573 -2205 623 -219
14 -639 6 -845 -15 -1518 -160 -2847 -908 -3760 -2117 -562 -745 -924 -1651
-1035 -2593 -102 -870 14 -1758 337 -2581 426 -1083 1216 -2018 2210 -2615
456 -274 908 -464 1463 -613 l155 -42 1132 -3 1132 -2 213 54 c389 100 692
213 1058 394 129 64 238 118 243 120 4 2 7 -125 7 -282 l0 -286 1545 0 1546 0
-1 7153 c-1 4542 -5 7199 -11 7282 -24 327 -86 567 -210 820 -202 414 -532
732 -1014 981 -380 196 -793 321 -1310 398 -150 22 -220 29 -482 51 l-63 6 -2
-3394z m-2134 -5477 c284 -43 541 -124 806 -256 271 -135 448 -262 673 -483
227 -223 375 -427 517 -716 93 -188 141 -316 190 -500 208 -785 38 -1633 -459
-2283 -358 -470 -876 -813 -1446 -958 -256 -65 -482 -90 -750 -81 -196 7 -323
23 -503 63 -1006 225 -1806 1041 -2012 2054 -50 246 -65 591 -35 841 111 953
728 1771 1617 2143 242 101 506 166 793 196 139 14 449 4 609 -20z"/>
<path d="M20504 32181 c-2 -2 -4 -1623 -4 -3601 l0 -3597 403 -316 c221 -174
600 -472 842 -662 242 -190 510 -401 595 -467 85 -67 196 -154 245 -193 50
-40 302 -238 560 -440 259 -203 523 -411 588 -463 l117 -93 78 71 c164 153
370 292 577 391 612 293 1346 293 1960 0 1083 -518 1584 -1779 1148 -2891
-153 -390 -434 -761 -757 -996 -52 -38 -95 -72 -96 -76 0 -3 53 -34 118 -69
64 -34 200 -107 302 -162 102 -55 336 -181 520 -280 184 -99 477 -256 650
-350 173 -93 464 -249 645 -347 182 -97 423 -227 536 -289 113 -61 212 -111
220 -110 15 0 88 83 216 245 642 808 1038 1780 1148 2819 22 205 31 707 16
920 -32 462 -118 901 -258 1330 -368 1123 -1085 2088 -2061 2772 -387 271
-902 532 -1352 685 -430 146 -917 244 -1375 278 -180 13 -590 13 -770 0 -552
-40 -1128 -172 -1620 -369 -54 -22 -100 -39 -101 -38 -2 1 -4 925 -7 2052 l-4
2050 -22 140 c-77 487 -251 838 -575 1160 -194 193 -402 338 -681 475 -410
201 -853 324 -1425 395 -137 17 -369 33 -376 26z m9138 -7763 c58 -49 238
-248 238 -263 0 -6 -81 -91 -180 -190 l-179 -179 -93 90 c-51 49 -108 102
-127 116 l-34 26 85 118 c46 66 117 165 156 222 40 56 75 102 78 102 3 0 28
-19 56 -42z m516 -635 c44 -66 212 -348 212 -357 0 -4 -24 -17 -52 -30 -29
-13 -82 -37 -118 -54 -178 -83 -312 -143 -314 -140 -2 2 -24 44 -51 93 -26 50
-68 123 -93 163 l-44 72 28 23 c99 78 380 287 386 287 4 0 25 -26 46 -57z
m402 -749 c89 -205 105 -254 90 -264 -44 -27 -496 -128 -510 -114 -4 5 -29 57
-54 117 -25 59 -55 125 -66 148 l-21 40 43 18 c24 11 99 42 168 71 69 29 159
67 200 85 41 19 79 33 85 31 5 -1 35 -61 65 -132z"/>
<path d="M7665 26011 c-242 -112 -397 -214 -539 -351 -154 -149 -244 -304
-283 -484 -17 -80 -13 -258 7 -313 l12 -33 1420 0 1421 0 126 123 c422 410
875 729 1391 978 69 34 152 72 185 86 33 14 64 29 70 34 5 5 -737 9 -1850 8
l-1860 -1 -100 -47z"/>
<path d="M6830 24365 l0 -215 1213 0 1212 0 14 22 c26 41 193 252 257 324 35
40 64 75 64 78 0 3 -621 6 -1380 6 l-1380 0 0 -215z"/>
<path d="M20501 23658 l0 -583 745 -925 c410 -509 904 -1123 1099 -1365 194
-242 625 -777 957 -1190 332 -412 601 -751 596 -753 -4 -2 -47 19 -95 46 -49
27 -203 111 -343 187 -380 206 -810 439 -940 510 -63 35 -221 120 -350 190
-129 70 -337 183 -462 251 -126 68 -333 181 -460 250 -128 70 -305 166 -393
214 -88 48 -204 110 -257 139 l-98 52 0 -2590 0 -2591 3066 0 3066 0 127 26
c985 199 1891 658 2625 1331 l67 61 -73 25 c-40 14 -224 77 -408 140 -184 63
-567 194 -850 292 -283 98 -794 274 -1135 391 -341 117 -876 302 -1190 410
-313 108 -707 243 -875 300 -345 117 -477 178 -672 307 -575 382 -1040 996
-1360 1797 -70 175 -190 458 -253 600 -19 41 -86 192 -149 335 -151 342 -330
735 -491 1080 -25 55 -65 141 -88 190 -23 50 -114 239 -202 420 l-161 330
-124 85 c-69 47 -260 178 -425 291 -449 307 -481 329 -488 329 -4 0 -7 -262
-6 -582z"/>
<path d="M25275 22668 c-408 -46 -805 -234 -1103 -522 -394 -381 -596 -878
-579 -1426 9 -297 68 -532 194 -785 267 -533 740 -896 1332 -1022 116 -25 145
-27 361 -28 253 0 307 6 499 56 658 172 1181 694 1351 1351 50 195 63 317 57
543 -6 221 -28 355 -88 535 -140 421 -427 789 -794 1017 -365 228 -807 329
-1230 281z m320 -333 c175 -46 323 -198 365 -374 8 -33 11 -91 8 -152 -5 -92
-8 -106 -46 -183 -90 -181 -257 -286 -458 -286 -449 0 -673 542 -355 861 67
67 156 119 237 138 62 14 185 12 249 -4z m1240 -1056 c107 -33 199 -103 265
-201 55 -83 80 -169 80 -277 0 -150 -44 -257 -149 -362 -199 -198 -511 -197
-711 1 -192 190 -200 497 -17 696 140 153 331 205 532 143z m-2383 0 c143 -29
286 -135 347 -257 103 -205 74 -425 -77 -584 -108 -114 -215 -160 -367 -160
-232 0 -425 143 -489 361 -23 78 -21 213 4 293 75 244 334 398 582 347z m1098
-1110 c81 -13 191 -65 252 -119 185 -162 224 -449 90 -656 -78 -120 -208 -203
-354 -225 -232 -36 -462 101 -548 328 -27 72 -37 198 -21 276 40 190 200 350
391 391 81 18 108 19 190 5z"/>
<path d="M30777 17468 c-13 -18 -67 -94 -119 -168 -52 -74 -125 -173 -162
-219 -37 -45 -65 -85 -63 -87 2 -2 583 -3 1291 -2 l1287 3 -24 45 c-13 25 -34
63 -47 85 -42 76 -127 180 -225 278 l-99 97 -907 0 -908 0 -24 -32z"/>
<path d="M30070 16609 c-396 -381 -810 -682 -1239 -898 -125 -63 -364 -171
-451 -204 -8 -3 836 -6 1875 -6 l1890 -1 125 59 c312 145 533 317 666 517 126
189 172 418 124 607 l-12 47 -1427 -1 -1426 0 -125 -120z"/>
<path d="M25191 14218 c7 -13 22 -39 34 -58 13 -19 125 -213 250 -430 126
-217 277 -478 336 -580 l107 -185 2966 -3 2966 -2 0 640 0 640 -3335 0 -3336
0 12 -22z"/>
<path d="M8900 13589 l0 -640 693 7 c380 4 1671 8 2867 8 l2175 1 86 -22 c223
-57 398 -159 547 -318 336 -360 444 -941 263 -1411 -55 -142 -125 -248 -241
-364 -197 -197 -406 -286 -747 -320 -156 -15 -1408 -28 -2943 -32 l-1295 -3
-3 746 -2 747 -108 -4 c-148 -6 -960 -24 -1054 -24 l-78 0 0 -1270 0 -1270
3093 0 3093 0 129 44 c394 132 678 308 951 587 354 364 571 818 656 1379 20
133 17 577 -5 716 -59 372 -190 714 -385 1005 -420 628 -1089 995 -1952 1069
-72 6 -1162 10 -2927 10 l-2813 0 0 -641z"/>
<path d="M19229 14223 l-1276 -3 -6 -1628 c-4 -895 -7 -1975 -7 -2399 l0 -773
2059 0 2058 0 104 45 c236 104 391 206 550 365 125 124 212 245 278 383 195
408 181 901 -37 1332 -84 168 -176 292 -322 435 -193 189 -255 293 -254 425 1
74 24 130 87 207 26 32 47 61 47 64 0 4 -32 4 -72 0 -148 -14 -306 -92 -493
-243 l-114 -93 -1277 0 -1277 0 6 158 c4 86 7 232 7 325 l0 167 1193 -1 c655
-1 1707 -5 2336 -8 l1145 -6 161 -270 c485 -811 704 -1179 702 -1181 -1 -2
-182 6 -402 16 -371 17 -401 17 -413 2 -7 -10 -85 -147 -174 -307 -89 -159
-231 -413 -315 -564 -84 -151 -153 -278 -153 -283 0 -4 471 -8 1048 -8 l1047
0 279 -480 278 -480 820 0 819 0 -25 43 c-71 123 -463 801 -496 857 -53 90
-250 432 -480 830 -106 184 -205 355 -220 380 -15 25 -130 223 -255 440 -126
217 -324 559 -440 760 -116 201 -274 473 -350 605 -76 132 -150 260 -165 285
-15 25 -101 172 -190 328 l-163 282 -2186 -2 c-1202 -2 -2760 -4 -3462 -5z
m1291 -3044 c1055 -12 1028 -10 1133 -67 66 -35 131 -110 147 -167 18 -65 8
-159 -25 -228 -35 -74 -124 -171 -189 -205 l-51 -26 -1104 -13 c-608 -7 -1107
-10 -1110 -7 -7 7 -30 717 -24 728 3 4 60 6 127 2 66 -3 560 -11 1096 -17z"/>
<path d="M26382 12163 c103 -178 409 -708 530 -915 l80 -138 2429 0 2429 0 0
605 0 605 -2779 0 -2780 0 91 -157z"/>
<path d="M27348 10484 c-5 -4 343 -607 574 -996 l40 -68 1944 0 1944 0 0 535
0 535 -2248 0 c-1237 0 -2251 -2 -2254 -6z"/>
<path d="M16125 8860 c-137 -18 -265 -81 -352 -173 -94 -99 -128 -198 -121
-352 4 -87 9 -111 36 -169 56 -118 175 -214 315 -250 128 -33 321 -28 453 12
l59 18 3 57 c4 72 -6 77 -90 47 -90 -31 -271 -39 -354 -15 -173 49 -262 176
-252 359 6 110 34 171 109 240 88 82 143 100 304 101 100 0 144 -4 192 -19 84
-26 93 -21 93 54 0 73 -1 73 -143 89 -107 12 -163 12 -252 1z"/>
<path d="M18495 8860 c-137 -18 -265 -81 -352 -173 -94 -99 -128 -198 -121
-352 4 -87 9 -111 36 -169 56 -118 175 -214 315 -250 128 -33 321 -28 453 12
l59 18 3 57 c4 72 -6 77 -90 47 -90 -31 -271 -39 -354 -15 -173 49 -262 176
-252 359 6 110 34 171 109 240 88 82 143 100 304 101 100 0 144 -4 192 -19 84
-26 93 -21 93 54 0 73 -1 73 -143 89 -107 12 -163 12 -252 1z"/>
<path d="M27125 8859 c-288 -42 -475 -236 -475 -493 0 -143 40 -237 140 -330
111 -102 227 -140 420 -139 129 1 243 19 329 52 l46 19 0 223 0 224 -189 3
c-130 2 -193 -1 -202 -9 -17 -14 -18 -91 -2 -107 8 -8 50 -12 125 -12 l113 0
0 -116 0 -115 -37 -16 c-58 -25 -232 -29 -313 -9 -176 45 -268 174 -258 361 5
106 38 174 113 244 87 79 142 96 310 96 127 0 147 -3 219 -28 44 -15 85 -26
93 -23 9 4 13 25 13 69 l0 64 -60 17 c-115 33 -266 42 -385 25z"/>
<path d="M30355 8860 c-137 -18 -265 -81 -352 -173 -94 -99 -128 -198 -121
-352 4 -87 9 -111 36 -169 56 -118 175 -214 315 -250 128 -33 321 -28 453 12
l59 18 3 57 c4 72 -6 77 -90 47 -90 -31 -271 -39 -354 -15 -173 49 -262 176
-252 359 6 110 34 171 109 240 88 82 143 100 304 101 100 0 144 -4 192 -19 84
-26 93 -21 93 54 0 73 -1 73 -143 89 -107 12 -163 12 -252 1z"/>
<path d="M9043 8843 c-10 -4 -13 -106 -13 -463 0 -408 2 -459 16 -464 28 -11
130 -6 142 6 8 8 12 67 12 200 l0 188 184 0 c101 0 191 3 200 6 12 5 16 20 16
59 0 39 -4 54 -16 59 -9 3 -99 6 -200 6 l-184 0 0 140 0 140 213 2 212 3 0 60
0 60 -285 2 c-157 1 -291 -1 -297 -4z"/>
<path d="M9863 8843 c-10 -4 -13 -106 -13 -463 0 -408 2 -459 16 -464 28 -11
130 -6 142 6 8 8 12 66 12 195 l0 183 70 0 c124 0 147 -19 311 -245 l104 -144
83 -1 c65 0 84 3 88 15 7 18 -204 303 -279 377 l-48 47 50 22 c62 26 136 103
150 155 43 156 -62 286 -256 314 -69 10 -408 13 -430 3z m421 -134 c86 -24
124 -101 88 -181 -16 -37 -29 -50 -73 -71 -48 -24 -64 -27 -166 -27 l-113 0 0
145 0 145 113 0 c61 0 130 -5 151 -11z"/>
<path d="M10863 8843 c-10 -4 -13 -106 -13 -463 0 -408 2 -459 16 -464 9 -3
145 -6 303 -6 210 0 290 3 299 12 7 7 12 30 12 53 0 23 -5 46 -12 53 -9 9 -74
12 -230 12 l-218 0 0 145 0 145 184 0 c101 0 191 3 200 6 12 5 16 20 16 59 0
39 -4 54 -16 59 -9 3 -99 6 -200 6 l-184 0 0 130 0 130 213 2 212 3 0 60 0 60
-285 2 c-157 1 -291 -1 -297 -4z"/>
<path d="M11723 8843 c-10 -4 -13 -106 -13 -463 0 -408 2 -459 16 -464 9 -3
145 -6 303 -6 210 0 290 3 299 12 7 7 12 30 12 53 0 23 -5 46 -12 53 -9 9 -74
12 -230 12 l-218 0 0 145 0 145 184 0 c101 0 191 3 200 6 12 5 16 20 16 59 0
39 -4 54 -16 59 -9 3 -99 6 -200 6 l-184 0 0 130 0 130 213 2 212 3 0 60 0 60
-285 2 c-157 1 -291 -1 -297 -4z"/>
<path d="M12573 8843 c-10 -4 -13 -106 -13 -463 0 -408 2 -459 16 -464 9 -3
143 -6 298 -6 206 0 285 3 294 12 7 7 12 30 12 53 0 23 -5 46 -12 53 -9 9 -73
12 -225 12 l-213 0 0 393 c0 292 -3 396 -12 405 -12 12 -120 16 -145 5z"/>
<path d="M13684 8798 c-15 -29 -114 -235 -220 -457 -152 -317 -191 -407 -182
-418 8 -10 32 -13 86 -11 l76 3 56 125 56 125 226 3 225 2 61 -130 62 -130 79
0 c61 0 80 3 85 15 3 8 -90 214 -212 467 l-217 453 -77 3 -77 3 -27 -53z m183
-323 l81 -175 -165 0 c-90 0 -163 4 -161 9 21 55 154 341 159 341 3 0 42 -79
86 -175z"/>
<path d="M14493 8843 c-10 -4 -13 -106 -13 -463 0 -518 -9 -470 90 -470 38 0
62 5 69 14 9 11 12 103 9 360 -2 190 0 345 4 344 3 -2 136 -164 294 -360 l287
-358 81 0 c51 0 87 5 94 12 17 17 17 899 0 916 -17 17 -132 16 -147 -1 -7 -9
-12 -125 -13 -360 l-3 -347 -285 360 -285 359 -85 0 c-47 0 -91 -3 -97 -6z"/>
<path d="M16763 8843 c-10 -4 -13 -106 -13 -463 0 -408 2 -459 16 -464 9 -3
145 -6 303 -6 210 0 290 3 299 12 7 7 12 30 12 53 0 23 -5 46 -12 53 -9 9 -74
12 -230 12 l-218 0 0 145 0 145 184 0 c101 0 191 3 200 6 12 5 16 20 16 59 0
39 -4 54 -16 59 -9 3 -99 6 -200 6 l-184 0 0 130 0 130 213 2 212 3 0 60 0 60
-285 2 c-157 1 -291 -1 -297 -4z"/>
<path d="M19133 8843 c-10 -4 -13 -106 -13 -463 0 -408 2 -459 16 -464 28 -11
130 -6 142 6 8 8 12 66 12 195 l0 183 70 0 c124 0 147 -19 311 -245 l104 -144
83 -1 c65 0 84 3 88 15 7 18 -204 303 -279 377 l-48 47 50 22 c62 26 136 103
150 155 43 156 -62 286 -256 314 -69 10 -408 13 -430 3z m421 -134 c86 -24
124 -101 88 -181 -16 -37 -29 -50 -73 -71 -48 -24 -64 -27 -166 -27 l-113 0 0
145 0 145 113 0 c61 0 130 -5 151 -11z"/>
<path d="M20133 8843 c-10 -4 -13 -106 -13 -463 0 -408 2 -459 16 -464 9 -3
145 -6 303 -6 210 0 290 3 299 12 7 7 12 30 12 53 0 23 -5 46 -12 53 -9 9 -74
12 -230 12 l-218 0 0 145 0 145 184 0 c101 0 191 3 200 6 12 5 16 20 16 59 0
39 -4 54 -16 59 -9 3 -99 6 -200 6 l-184 0 0 130 0 130 213 2 212 3 0 60 0 60
-285 2 c-157 1 -291 -1 -297 -4z"/>
<path d="M21264 8798 c-15 -29 -114 -235 -220 -457 -152 -317 -191 -407 -182
-418 8 -10 32 -13 86 -11 l76 3 56 125 56 125 226 3 225 2 61 -130 62 -130 79
0 c61 0 80 3 85 15 3 8 -90 214 -212 467 l-217 453 -77 3 -77 3 -27 -53z m183
-323 l81 -175 -165 0 c-90 0 -163 4 -161 9 21 55 154 341 159 341 3 0 42 -79
86 -175z"/>
<path d="M21832 8838 c-7 -7 -12 -30 -12 -53 0 -23 5 -46 12 -53 8 -8 59 -12
165 -12 l153 0 2 -402 3 -403 75 0 75 0 3 403 2 402 153 0 c106 0 157 4 165
12 7 7 12 30 12 53 0 23 -5 46 -12 53 -9 9 -111 12 -398 12 -287 0 -389 -3
-398 -12z"/>
<path d="M22833 8843 c-10 -4 -13 -106 -13 -463 0 -408 2 -459 16 -464 28 -11
130 -6 142 6 9 9 12 124 12 458 0 334 -3 449 -12 458 -12 12 -120 16 -145 5z"/>
<path d="M23166 8835 c-3 -9 78 -201 198 -468 l204 -452 84 -3 83 -3 205 447
c113 245 205 456 205 468 0 20 -5 21 -79 21 l-79 0 -138 -310 c-76 -170 -150
-336 -164 -369 -14 -32 -28 -56 -31 -53 -3 3 -77 169 -164 369 l-158 363 -80
3 c-65 2 -81 0 -86 -13z"/>
<path d="M24343 8843 c-10 -4 -13 -106 -13 -463 0 -408 2 -459 16 -464 9 -3
145 -6 303 -6 210 0 290 3 299 12 7 7 12 30 12 53 0 23 -5 46 -12 53 -9 9 -74
12 -230 12 l-218 0 0 145 0 145 184 0 c101 0 191 3 200 6 12 5 16 20 16 59 0
39 -4 54 -16 59 -9 3 -99 6 -200 6 l-184 0 0 130 0 130 213 2 212 3 0 60 0 60
-285 2 c-157 1 -291 -1 -297 -4z"/>
<path d="M25944 8798 c-15 -29 -114 -235 -220 -457 -152 -317 -191 -407 -182
-418 8 -10 32 -13 86 -11 l76 3 56 125 56 125 226 3 225 2 61 -130 62 -130 79
0 c61 0 80 3 85 15 3 8 -90 214 -212 467 l-217 453 -77 3 -77 3 -27 -53z m183
-323 l81 -175 -165 0 c-90 0 -163 4 -161 9 21 55 154 341 159 341 3 0 42 -79
86 -175z"/>
<path d="M27873 8843 c-10 -4 -13 -106 -13 -463 0 -408 2 -459 16 -464 9 -3
145 -6 303 -6 210 0 290 3 299 12 7 7 12 30 12 53 0 23 -5 46 -12 53 -9 9 -74
12 -230 12 l-218 0 0 145 0 145 184 0 c101 0 191 3 200 6 12 5 16 20 16 59 0
39 -4 54 -16 59 -9 3 -99 6 -200 6 l-184 0 0 130 0 130 213 2 212 3 0 60 0 60
-285 2 c-157 1 -291 -1 -297 -4z"/>
<path d="M28723 8843 c-10 -4 -13 -106 -13 -463 0 -518 -9 -470 90 -470 38 0
62 5 69 14 9 11 12 103 9 360 -2 190 0 345 4 344 3 -2 136 -164 294 -360 l287
-358 81 0 c51 0 87 5 94 12 17 17 17 899 0 916 -17 17 -132 16 -147 -1 -7 -9
-12 -125 -13 -360 l-3 -347 -285 360 -285 359 -85 0 c-47 0 -91 -3 -97 -6z"/>
<path d="M30866 8835 c-4 -10 58 -117 174 -301 l180 -285 2 -167 3 -167 75 0
75 0 3 168 2 168 185 286 c147 226 183 288 174 299 -8 9 -34 14 -81 14 l-69 0
-112 -172 c-62 -95 -126 -194 -143 -221 l-30 -47 -135 217 -135 218 -81 3
c-66 2 -82 0 -87 -13z"/>
</g>
</svg>
